<?xml version="1.0" encoding="utf-8"?>
<!-- Generator: Adobe Illustrator 22.0.1, SVG Export Plug-In . SVG Version: 6.00 Build 0)  -->
<svg version="1.1" id="Layer_1" xmlns="http://www.w3.org/2000/svg" xmlns:xlink="http://www.w3.org/1999/xlink" x="0px" y="0px"
	 viewBox="0 0 248.4 80.7" style="enable-background:new 0 0 248.4 80.7;" xml:space="preserve">
<style type="text/css">
	.st0{fill:#000000;}
</style>
<g>
	<polygon class="st0" points="8.6,19.5 0.7,19.5 18.2,42.3 0,66 7.7,66 22.2,47 30,47 26.2,42.2 29.9,37.5 22.3,37.5 	"/>
	<polygon class="st0" points="30,47 22.2,47 36.6,66 44.6,66 	"/>
	<polygon class="st0" points="43.8,19.5 36.1,19.5 22.3,37.5 29.9,37.5 	"/>
	<rect x="54.8" y="25.6" class="st0" width="6.9" height="40.4"/>
	<polygon class="st0" points="67.8,0 64.6,0.5 61.8,1.4 58.9,3.6 56.8,6.4 55.4,10 54.9,13.2 54.8,15.5 54.8,19.6 48.4,19.6
		48.4,25.6 76.4,25.6 76.4,19.7 61.6,19.7 61.6,15.5 62.1,11.7 63.4,8.8 66.5,6.5 69.8,6 76.5,6 76.4,1.1 73.3,0.3 70.3,0 69.1,0
		"/>
	<polygon class="st0" points="76.5,6 69.8,6 70.8,6 71.7,6.1 75.4,6.9 76.5,7.2 	"/>
	<rect x="82.2" y="19.5" class="st0" width="6.9" height="46.5"/>
	<rect x="81.8" y="1.7" class="st0" width="7.9" height="7.6"/>
	<polygon class="st0" points="108.6,19.5 101.7,19.5 101.7,66 108.6,66 108.6,39.4 108.6,38.1 109.3,34.5 110.6,31.4 112.6,28.8
		114.1,27.6 108.6,27.6 	"/>
	<polygon class="st0" points="138.5,24.8 123.3,24.8 124.5,24.9 125.6,25.1 128.7,26.1 131.2,27.7 133.1,30 134.5,32.9 135.2,36.3
		135.4,38.8 135.4,66 142.3,66 142.3,36.8 142.1,33.9 141.5,30.9 139.9,27 139.2,25.8 	"/>
	<polygon class="st0" points="123.4,18.5 120,19 116.9,20 114.3,21.4 111.4,23.9 109.1,26.8 108.6,27.6 114.1,27.6 114.3,27.4
		115.3,26.8 118.4,25.5 122,24.9 123.3,24.8 138.5,24.8 138.4,24.7 135.4,21.9 131.6,19.9 128.6,19 125.2,18.6 	"/>
	<rect x="154.1" y="19.5" class="st0" width="6.9" height="46.5"/>
	<rect x="153.6" y="1.7" class="st0" width="7.9" height="7.6"/>
	<polygon class="st0" points="182.9,25.6 175.9,25.6 175.9,53.7 176.3,57.4 177.3,60.6 179.1,63.1 181.4,64.9 184.2,66.1
		187.6,66.7 190,66.8 191.1,66.7 194,66.2 197.4,64.8 197,60.5 190.3,60.5 189.1,60.4 186.1,59.5 184,57.5 182.9,54.2 182.9,52.8
		"/>
	<polygon class="st0" points="196.9,59.1 193.3,60.3 190.3,60.5 197,60.5 	"/>
	<rect x="169.5" y="19.5" class="st0" width="28.1" height="6.1"/>
	<rect x="175.9" y="5.5" class="st0" width="6.9" height="14"/>
	<polygon class="st0" points="205.9,72.8 203.6,78.3 204,78.5 204.9,78.9 208.4,80.1 211.3,80.6 213.4,80.7 214.5,80.6 217.4,80.2
		220.8,78.8 223.8,76.3 225.2,74.5 212.4,74.5 211.3,74.5 207.6,73.6 206.8,73.3 	"/>
	<polygon class="st0" points="209.2,19.5 201.6,19.5 222.1,67.1 221.5,68.3 219.7,71.2 216.9,73.6 213.4,74.5 212.4,74.5
		225.2,74.5 227.1,71.5 228.9,67.5 232.7,58.3 226.1,58.3 	"/>
	<polygon class="st0" points="248.4,19.5 241.1,19.5 226.1,58.3 232.7,58.3 	"/>
</g>
</svg>
